<?xml version="1.0" standalone="no"?><!DOCTYPE svg PUBLIC "-//W3C//DTD SVG 1.1//EN" "http://www.w3.org/Graphics/SVG/1.1/DTD/svg11.dtd"><svg t="1748171239980" class="icon" viewBox="0 0 1024 1024" version="1.1" xmlns="http://www.w3.org/2000/svg" p-id="7299" xmlns:xlink="http://www.w3.org/1999/xlink" width="200" height="200"><path d="M1024 512c0-199.2-113.6-371.2-279.2-456l238.4 656c26.4-61.6 40.8-128.8 40.8-200zM144.8 155.2l315.2 865.6c16.8 1.6 34.4 2.4 52 2.4 8.8 0 17.6 0 25.6-0.8L203.2 104c-20.8 15.2-40 32.8-58.4 51.2zM0 512c0 230.4 152.8 425.6 361.6 489.6l-279.2-768C30.4 313.6 0 409.6 0 512zM928.8 809.6L639.2 16C611.2 8.8 582.4 4 552.8 1.6l318.4 874.4c20.8-20 40-42.4 57.6-66.4z" fill="#E5F266" p-id="7300"></path><path d="M983.2 712L744.8 56C712 39.2 676.8 25.6 639.2 16l288.8 793.6c22.4-30.4 40.8-63.2 55.2-97.6zM82.4 233.6l279.2 768c31.2 9.6 64 16 97.6 20L144.8 155.2c-23.2 24-44 50.4-62.4 78.4zM512 0C396 0 288.8 38.4 203.2 104l334.4 920c129.6-6.4 247.2-61.6 333.6-147.2L553.6 1.6C540 0.8 525.6 0 512 0z" fill="#DFE55E" p-id="7301"></path><path d="M512 512m-416 0a416 416 0 1 0 832 0 416 416 0 1 0-832 0Z" fill="#A7D10F" p-id="7302"></path><path d="M848 541.6c-21.6-4-43.2 8-51.2 27.2-0.8 0-0.8 0-1.6-0.8l-12 4-57.6-14.4c0.8-8 1.6-16 1.6-24.8 0-26.4-5.6-52-15.2-76l21.6-11.2 8 0.8 0.8-0.8c9.6 12 25.6 16.8 40 10.4 16.8-7.2 24.8-27.2 17.6-44-7.2-16.8-27.2-24.8-44-17.6-14.4 6.4-22.4 21.6-19.2 36H736l-5.6 7.2-22.4 8c-15.2-31.2-37.6-57.6-65.6-77.6l32.8-80 11.2-7.2c0-0.8 0.8-0.8 0.8-1.6 23.2 4.8 47.2-6.4 57.6-28 12.8-25.6 2.4-57.6-24-70.4-25.6-12.8-57.6-2.4-70.4 24-10.4 21.6-4.8 48 12.8 63.2 0 0.8-0.8 0.8-0.8 1.6l0.8 13.6-42.4 72.8c-28-14.4-59.2-23.2-93.6-23.2-4 0-8.8 0-12.8 0.8l-7.2-49.6 3.2-7.2v-0.8c13.6-4.8 23.2-17.6 22.4-32.8-1.6-17.6-16.8-31.2-34.4-29.6-17.6 1.6-31.2 16.8-29.6 34.4 0.8 15.2 12 26.4 26.4 28.8v0.8l4.8 7.2v50.4c-32.8 4.8-64 17.6-89.6 36L359.2 328l-3.2-12.8c-0.8-0.8-0.8-0.8-1.6-0.8 12-20 8.8-46.4-8.8-63.2-20.8-20-53.6-20-73.6 0.8s-20 53.6 0.8 73.6c17.6 16.8 44 19.2 64 7.2 0 0.8 0.8 0.8 0.8 1.6l12.8 4 42.4 48c-30.4 28-52.8 65.6-61.6 107.2l-40-7.2-5.6-5.6h-0.8c0-15.2-10.4-28.8-25.6-32.8-18.4-4.8-36 6.4-40.8 24.8-4.8 18.4 6.4 36 24.8 40.8 15.2 4 30.4-3.2 37.6-16.8 0 0 0.8 0 0.8 0.8l8.8-2.4 40 12.8c-0.8 8.8-1.6 17.6-1.6 26.4 0 34.4 8.8 67.2 24 96L308.8 664l-10.4 0.8c-0.8 0-0.8 0.8-0.8 0.8-14.4-12.8-36-15.2-52.8-4-20 12.8-25.6 40-12 60 12.8 20 40 25.6 60 12 16.8-11.2 23.2-32 16.8-50.4 0.8 0 0.8 0 1.6-0.8l5.6-9.6 48-27.2c16 24 36.8 44 61.6 59.2l-6.4 18.4-5.6 4v0.8c-12-1.6-24 4-28.8 16-5.6 13.6 0.8 29.6 14.4 35.2 13.6 5.6 29.6-0.8 35.2-14.4 4.8-12 0.8-24.8-8.8-32 0 0 0-0.8 0.8-0.8l-0.8-7.2 8-16c28.8 16 61.6 24.8 96 24.8 5.6 0 10.4 0 16-0.8l0.8 14.4-7.2 4.8v0.8c-12 2.4-20.8 12.8-21.6 25.6-0.8 15.2 11.2 27.2 26.4 28 15.2 0.8 27.2-11.2 28-26.4 0-12.8-8-23.2-20-26.4v-0.8l-3.2-6.4 1.6-15.2c27.2-3.2 52.8-12 75.2-25.6l54.4 63.2 1.6 12.8c0 0.8 0.8 0.8 0.8 0.8-14.4 17.6-15.2 43.2-1.6 61.6 16.8 22.4 48 27.2 70.4 10.4 22.4-16.8 27.2-48 10.4-70.4-13.6-19.2-38.4-24.8-59.2-16.8 0-0.8-0.8-0.8-0.8-1.6l-12-5.6-44-68.8c36.8-28 64-68 74.4-115.2l60 6.4 8.8 8h1.6c1.6 20.8 16.8 39.2 39.2 43.2 25.6 4.8 50.4-12.8 55.2-38.4s-11.2-49.6-37.6-53.6z" fill="#91B208" p-id="7303"></path><path d="M235.2 458.4m-33.6 0a33.6 33.6 0 1 0 67.2 0 33.6 33.6 0 1 0-67.2 0Z" fill="#E82121" p-id="7304"></path><path d="M340.8 485.6c-0.8 4.8-5.6 7.2-10.4 6.4l-56.8-18.4-8.8 2.4c-4.8-0.8-7.2-5.6-6.4-10.4 0.8-4.8 5.6-7.2 10.4-6.4l5.6 5.6 59.2 10.4c5.6 0.8 8.8 5.6 7.2 10.4z" fill="#A30404" p-id="7305"></path><path d="M392 732m-27.2 0a27.2 27.2 0 1 0 54.4 0 27.2 27.2 0 1 0-54.4 0Z" fill="#E82121" p-id="7306"></path><path d="M426.4 651.2c3.2 1.6 4.8 5.6 3.2 8.8L408 703.2l0.8 7.2c-1.6 3.2-5.6 4.8-8.8 3.2-3.2-1.6-4.8-5.6-3.2-8.8l5.6-4 16-45.6c0.8-4 4.8-5.6 8-4z" fill="#A30404" p-id="7307"></path><path d="M531.2 758.4m-27.2 0a27.2 27.2 0 1 0 54.4 0 27.2 27.2 0 1 0-54.4 0Z" fill="#E82121" p-id="7308"></path><path d="M533.6 671.2c4 0 6.4 3.2 6.4 7.2l-4.8 48 3.2 6.4c0 4-3.2 6.4-7.2 6.4s-6.4-3.2-6.4-7.2l3.2-5.6-1.6-48c0-4.8 3.2-8 7.2-7.2z" fill="#A30404" p-id="7309"></path><path d="M754.4 404.8m-33.6 0a33.6 33.6 0 1 0 67.2 0 33.6 33.6 0 1 0-67.2 0Z" fill="#E82121" p-id="7310"></path><path d="M654.4 448.8c-1.6-4 0-9.6 4-11.2l56-20 5.6-7.2c4-1.6 9.6 0 11.2 4 1.6 4 0 9.6-4 11.2l-8-0.8-53.6 28c-4.8 2.4-9.6 0-11.2-4z" fill="#A30404" p-id="7311"></path><path d="M485.6 224m-32 0a32 32 0 1 0 64 0 32 32 0 1 0-64 0Z" fill="#E82121" p-id="7312"></path><path d="M492.8 328c-4.8 0-8-3.2-8.8-7.2V264l-4-7.2c0-4.8 3.2-8 7.2-8.8 4.8 0 8 3.2 8.8 7.2l-3.2 7.2 8 56.8c0 4.8-4 8-8 8.8z" fill="#A30404" p-id="7313"></path><path d="M824.8 567.2m-47.2 0a47.2 47.2 0 1 0 94.4 0 47.2 47.2 0 1 0-94.4 0Z" fill="#E82121" p-id="7314"></path><path d="M672.8 540c0.8-6.4 7.2-10.4 13.6-9.6L768 551.2l12-4c6.4 0.8 10.4 7.2 9.6 13.6-0.8 6.4-7.2 10.4-13.6 9.6l-8.8-8-84.8-8.8c-6.4-0.8-11.2-6.4-9.6-13.6z" fill="#A30404" p-id="7315"></path><path d="M512 512m-200 0a200 200 0 1 0 400 0 200 200 0 1 0-400 0Z" fill="#E82121" p-id="7316"></path><path d="M433.6 428.8c-7.2 12.8-12 27.2-12 43.2 0 47.2 37.6 85.6 84 85.6S590.4 520 590.4 472.8c0-16-4-30.4-12-43.2l-144.8-0.8z" fill="#A30404" p-id="7317"></path><path d="M437.6 432c-7.2 12-11.2 24.8-11.2 39.2 0 43.2 35.2 78.4 79.2 78.4s80-34.4 80-77.6c0-14.4-4-28-11.2-40H437.6z" fill="#FFFFFF" p-id="7318"></path><path d="M488.8 435.2s-4 76.8 19.2 76.8c24 0 14.4-76.8 14.4-76.8h-33.6z" fill="#1E120D" p-id="7319"></path><path d="M488 396.8c-21.6-1.6-67.2-2.4-76.8 11.2-9.6 13.6-4 28 48.8 30.4 52.8 2.4 124.8 4 138.4-4.8 13.6-8.8 1.6-42.4-5.6-44-8-1.6-18.4 9.6-18.4 9.6s-6.4-8.8-16.8-9.6c-10.4-0.8-13.6 8-13.6 8s-32.8 0.8-56-0.8z" fill="#A30404" p-id="7320"></path><path d="M448 600s-13.6 24.8-20 24.8c-5.6 0-13.6-44-13.6-44L448 600zM620.8 587.2s-14.4 38.4-20 37.6C595.2 624 584 600 584 600l36.8-12.8z" fill="#FFFFFF" p-id="7321"></path><path d="M390.4 568s0.8 0 0 0l2.4 2.4 6.4 6.4c3.2 2.4 6.4 5.6 11.2 8 4 3.2 9.6 6.4 15.2 9.6l9.6 4.8c3.2 1.6 6.4 3.2 10.4 4 7.2 2.4 14.4 4.8 22.4 7.2l12 2.4c4 0.8 8.8 1.6 12.8 1.6 2.4 0 4 0.8 6.4 0.8h19.2c4 0 8.8 0 12.8-0.8 4 0 8.8-0.8 12.8-0.8 4-0.8 8.8-0.8 12.8-1.6l12-2.4c16-3.2 30.4-8 42.4-12.8 12-4.8 21.6-9.6 28.8-13.6 3.2-1.6 5.6-3.2 8-4.8 1.6-0.8 2.4-1.6 2.4-1.6 1.6-0.8 2.4-3.2 0.8-4.8-0.8-1.6-3.2-2.4-4.8-1.6 0 0-0.8 0.8-2.4 1.6-1.6 0.8-4 2.4-8 3.2-6.4 3.2-16.8 6.4-28 10.4-5.6 1.6-12.8 4-19.2 5.6-7.2 1.6-14.4 3.2-22.4 4.8-4 0.8-8 1.6-12 1.6-4 0.8-8 0.8-12 1.6-4 0-8 0.8-12 0.8h-36c-4 0-8-0.8-12-1.6s-8-0.8-11.2-1.6c-4-0.8-7.2-1.6-11.2-2.4-3.2-0.8-7.2-1.6-10.4-3.2-3.2-0.8-6.4-2.4-9.6-3.2-3.2-0.8-6.4-2.4-8.8-4-3.2-1.6-5.6-2.4-8-4-2.4-1.6-4.8-2.4-7.2-4-4.8-2.4-8-4.8-11.2-7.2-3.2-2.4-5.6-4-6.4-4.8-0.8-0.8-1.6-0.8-1.6-1.6l-0.8-0.8c-1.6-1.6-4-0.8-5.6 0-0.8 3.2-0.8 4.8 0 6.4z" fill="#1E120D" p-id="7322"></path><path d="M681.6 207.2m-52 0a52 52 0 1 0 104 0 52 52 0 1 0-104 0Z" fill="#E82121" p-id="7323"></path><path d="M607.2 360c-6.4-3.2-8.8-11.2-5.6-17.6L648 261.6l-0.8-13.6c3.2-6.4 11.2-8.8 17.6-5.6 6.4 3.2 8.8 11.2 5.6 17.6l-11.2 7.2L624 354.4c-2.4 6.4-10.4 8.8-16.8 5.6z" fill="#A30404" p-id="7324"></path><path d="M293.6 266.4m-52 0a52 52 0 1 0 104 0 52 52 0 1 0-104 0Z" fill="#E82121" p-id="7325"></path><path d="M415.2 385.6c-4.8 4.8-13.6 5.6-18.4 0l-61.6-69.6-12.8-4c-4.8-4.8-5.6-13.6 0-18.4 4.8-4.8 13.6-5.6 18.4 0l3.2 12.8 71.2 60.8c4.8 4.8 4.8 13.6 0 18.4z" fill="#A30404" p-id="7326"></path><path d="M251.2 675.2m-43.2 0a43.2 43.2 0 1 0 86.4 0 43.2 43.2 0 1 0-86.4 0Z" fill="#E82121" p-id="7327"></path><path d="M368.8 597.6c3.2 4.8 1.6 12-3.2 15.2l-67.2 37.6-5.6 9.6c-4.8 3.2-12 1.6-15.2-3.2-3.2-4.8-1.6-12 3.2-15.2l10.4-0.8 61.6-47.2c5.6-2.4 12.8-0.8 16 4z" fill="#A30404" p-id="7328"></path><path d="M708 793.6m-50.4 0a50.4 50.4 0 1 0 100.8 0 50.4 50.4 0 1 0-100.8 0Z" fill="#E82121" p-id="7329"></path><path d="M610.4 662.4c5.6-4 13.6-3.2 17.6 2.4l48 75.2 12 5.6c4 5.6 3.2 13.6-2.4 17.6-5.6 4.8-13.6 3.2-17.6-2.4l-1.6-12.8L608 680c-4-5.6-3.2-13.6 2.4-17.6z" fill="#A30404" p-id="7330"></path></svg>